<svg width="144" height="35" viewBox="0 0 144 35" fill="none" xmlns="http://www.w3.org/2000/svg">
<path d="M16.998 9.8457C17.4316 9.31836 18.0996 8.80859 19.002 8.31641C19.916 7.8125 21.1992 7.56055 22.8516 7.56055C25.1953 7.56055 26.8887 8.16406 27.9316 9.37109C28.9746 10.5781 29.4961 12.3887 29.4961 14.8027V25.0684C29.4961 25.4199 29.4199 25.666 29.2676 25.8066C29.127 25.9355 28.8809 26 28.5293 26H24.9082C24.5566 26 24.3047 25.9355 24.1523 25.8066C24.0117 25.666 23.9414 25.4199 23.9414 25.0684V15.7168C23.9414 14.4043 23.7012 13.4668 23.2207 12.9043C22.7402 12.3301 22.0195 12.043 21.0586 12.043C20.2031 12.043 19.5234 12.2363 19.0195 12.623C18.5273 12.998 18.1758 13.5078 17.9648 14.1523V25.0684C17.9648 25.4199 17.8887 25.666 17.7363 25.8066C17.5957 25.9355 17.3496 26 16.998 26H13.377C13.0254 26 12.7734 25.9355 12.6211 25.8066C12.4805 25.666 12.4102 25.4199 12.4102 25.0684V15.7168C12.4102 14.4395 12.1465 13.5078 11.6191 12.9219C11.0918 12.3359 10.4004 12.043 9.54492 12.043C8.73633 12.043 8.08594 12.2422 7.59375 12.6406C7.10156 13.0391 6.7207 13.543 6.45117 14.1523V25.0684C6.45117 25.4199 6.375 25.666 6.22266 25.8066C6.08203 25.9355 5.83594 26 5.48438 26H1.86328C1.51172 26 1.25977 25.9355 1.10742 25.8066C0.966797 25.666 0.896484 25.4199 0.896484 25.0684V10.3379C0.896484 10.0566 0.955078 9.83984 1.07227 9.6875C1.31836 9.35938 1.61133 9.02539 1.95117 8.68555C2.30273 8.3457 2.73047 7.98242 3.23438 7.5957C3.38672 7.47852 3.5332 7.41992 3.67383 7.41992C3.80273 7.41992 3.94922 7.47852 4.11328 7.5957C4.60547 7.98242 5.02734 8.35156 5.37891 8.70312C5.73047 9.05469 6.04102 9.41797 6.31055 9.79297H6.39844C6.79688 9.28906 7.41797 8.79102 8.26172 8.29883C9.10547 7.80664 10.3125 7.56055 11.8828 7.56055C13.3828 7.56055 14.4961 7.78906 15.2227 8.24609C15.9492 8.69141 16.541 9.22461 16.998 9.8457ZM34.8223 34.4551C34.3887 34.4551 34.0605 34.4082 33.8379 34.3145C33.6152 34.2324 33.4277 34.127 33.2754 33.998C32.9707 33.7051 32.6426 33.2949 32.291 32.7676C32.209 32.6387 32.1211 32.4863 32.0273 32.3105C31.9336 32.1465 31.8867 32.0059 31.8867 31.8887C31.8867 31.7598 31.916 31.6426 31.9746 31.5371C32.0332 31.4316 32.1035 31.332 32.1855 31.2383C32.373 30.9922 32.6016 30.7344 32.8711 30.4648C33.1406 30.207 33.3691 30.002 33.5566 29.8496C33.6855 29.7441 33.791 29.6738 33.873 29.6387C33.9551 29.6152 34.0254 29.6035 34.084 29.6035C34.1426 29.6035 34.2305 29.6152 34.3477 29.6387C34.4648 29.6621 34.6406 29.6738 34.875 29.6738C35.6836 29.6738 36.5273 29.4102 37.4062 28.8828C38.2852 28.3555 39.1523 27.3652 40.0078 25.9121C39.1172 25.0918 38.2383 24.0664 37.3711 22.8359C36.5156 21.5938 35.7422 20.252 35.0508 18.8105C34.3594 17.3574 33.8027 15.9102 33.3809 14.4688C32.9707 13.0273 32.7656 11.6973 32.7656 10.4785C32.7656 10.2207 32.8301 10.0156 32.959 9.86328C33.498 9.19531 34.2656 8.49805 35.2617 7.77148C35.4375 7.6543 35.5957 7.5957 35.7363 7.5957C35.8887 7.5957 36.0469 7.6543 36.2109 7.77148C36.75 8.1582 37.2012 8.52148 37.5645 8.86133C37.9395 9.20117 38.2559 9.53516 38.5137 9.86328C38.6426 10.0156 38.707 10.2324 38.707 10.5137V10.4434C38.707 11.3691 38.8184 12.3477 39.041 13.3789C39.2637 14.4102 39.5684 15.418 39.9551 16.4023C40.3418 17.375 40.7754 18.2598 41.2559 19.0566C41.7363 19.8418 42.2344 20.4688 42.75 20.9375H42.8379C43.0723 20.4922 43.3301 19.8535 43.6113 19.0215C43.9043 18.1777 44.1797 17.2461 44.4375 16.2266C44.6953 15.1953 44.9062 14.1758 45.0703 13.168C45.2344 12.1484 45.3164 11.2461 45.3164 10.4609V10.5137C45.3164 10.2324 45.375 10.0156 45.4922 9.86328C45.7617 9.53516 46.0781 9.20117 46.4414 8.86133C46.8047 8.52148 47.2441 8.1582 47.7598 7.77148C47.9238 7.6543 48.0762 7.5957 48.2168 7.5957C48.3809 7.5957 48.5332 7.6543 48.6738 7.77148C49.2012 8.1582 49.6465 8.52148 50.0098 8.86133C50.373 9.20117 50.6836 9.53516 50.9414 9.86328C51.0586 10.0156 51.1172 10.2266 51.1172 10.4961C51.1055 11.5625 50.9004 12.957 50.502 14.6797C50.1035 16.3906 49.5234 18.248 48.7617 20.252C48 22.2559 47.0742 24.2188 45.9844 26.1406C44.3555 29.0352 42.5977 31.1445 40.7109 32.4688C38.8242 33.793 36.8613 34.4551 34.8223 34.4551ZM51.1172 10.4609V10.5137V10.4961C51.1172 10.4844 51.1172 10.4727 51.1172 10.4609ZM32.7656 10.4609V10.4785V10.5137V10.4609Z" fill="#FF6D04"/>
<path d="M59.1152 26C57.9082 26 56.9883 25.8477 56.3555 25.543C55.7344 25.2383 55.3125 24.7402 55.0898 24.0488C54.8789 23.3574 54.7734 22.4375 54.7734 21.2891V5.50391C54.7734 4.33203 54.8789 3.40625 55.0898 2.72656C55.3125 2.03516 55.7344 1.54297 56.3555 1.25C56.9883 0.945313 57.9082 0.792969 59.1152 0.792969H63.9492C66.7617 0.792969 68.9238 1.30859 70.4355 2.33984C71.9473 3.37109 72.7031 4.82422 72.7031 6.69922C72.7031 7.625 72.4922 8.46875 72.0703 9.23047C71.6484 9.99219 71.0918 10.6426 70.4004 11.1816C69.7207 11.7207 68.9766 12.125 68.168 12.3945V12.4648C69.1992 12.6055 70.1309 12.9453 70.9629 13.4844C71.7949 14.0117 72.457 14.7031 72.9492 15.5586C73.4531 16.4023 73.7051 17.375 73.7051 18.4766C73.7051 20.1172 73.3066 21.5 72.5098 22.625C71.7246 23.7383 70.6348 24.582 69.2402 25.1562C67.8574 25.7188 66.2637 26 64.459 26H59.1152ZM60.4512 19.6191C60.4512 20.4043 60.5918 20.9668 60.873 21.3066C61.1543 21.6465 61.6816 21.8164 62.4551 21.8164H63.791C64.9746 21.8164 65.9238 21.5117 66.6387 20.9023C67.3652 20.293 67.7285 19.4609 67.7285 18.4062C67.7285 17.3984 67.377 16.6074 66.6738 16.0332C65.9707 15.459 65.0625 15.1719 63.9492 15.1719H63.9668C63.6855 15.1719 63.4746 15.1309 63.334 15.0488C63.0293 14.8496 62.7129 14.6211 62.3848 14.3633C62.0684 14.0938 61.7227 13.7715 61.3477 13.3965C61.2305 13.2441 61.1719 13.1328 61.1719 13.0625C61.1719 12.9688 61.2305 12.8574 61.3477 12.7285C61.7227 12.3535 62.0684 12.0312 62.3848 11.7617C62.7129 11.4922 63.0293 11.2637 63.334 11.0762C63.498 10.9941 63.709 10.9531 63.9668 10.9531H63.9492C64.6406 10.9531 65.2734 10.6953 65.8477 10.1797C66.4336 9.66406 66.7266 8.85547 66.7266 7.75391C66.7266 6.64062 66.416 5.90234 65.7949 5.53906C65.1738 5.16406 64.377 4.97656 63.4043 4.97656H62.4551C61.6816 4.97656 61.1543 5.14062 60.873 5.46875C60.5918 5.79688 60.4512 6.35938 60.4512 7.15625V19.6191ZM82.1074 26C80.9004 26 79.9805 25.8477 79.3477 25.543C78.7266 25.2383 78.3047 24.7402 78.082 24.0488C77.8711 23.3574 77.7656 22.4375 77.7656 21.2891V3.60547C77.7656 3.26563 77.8242 3.00781 77.9414 2.83203C78.4688 2.05859 79.207 1.24414 80.1562 0.388672C80.332 0.248047 80.4844 0.177734 80.6133 0.177734C80.7539 0.177734 80.9004 0.248047 81.0527 0.388672C81.5684 0.833984 82.002 1.26172 82.3535 1.67188C82.7051 2.07031 83.0098 2.45703 83.2676 2.83203C83.3848 3.01953 83.4434 3.27734 83.4434 3.60547V19.1973C83.4434 19.9824 83.584 20.5449 83.8652 20.8848C84.1465 21.2246 84.6738 21.3945 85.4473 21.3945L90.8438 21.377C91.125 21.377 91.3359 21.4238 91.4766 21.5176C91.7812 21.7285 92.0977 21.9805 92.4258 22.2734C92.7539 22.5664 93.0996 22.918 93.4629 23.3281C93.5801 23.4805 93.6387 23.6035 93.6387 23.6973C93.6387 23.8027 93.5801 23.9199 93.4629 24.0488C93.0996 24.459 92.7539 24.8105 92.4258 25.1035C92.0977 25.3965 91.7812 25.6484 91.4766 25.8594C91.3125 25.9531 91.1016 26 90.8438 26H82.1074ZM106.4 26.4395C103.963 26.4395 101.842 25.9707 100.037 25.0332C98.2324 24.0957 96.832 22.6836 95.8359 20.7969C94.8516 18.9102 94.3594 16.5547 94.3594 13.7305C94.3594 9.24219 95.4551 5.89648 97.6465 3.69336C99.8379 1.47852 102.891 0.371094 106.805 0.371094C110.473 0.371094 113.373 1.45508 115.506 3.62305C117.639 5.7793 118.705 8.97852 118.705 13.2207C118.705 16.2207 118.207 18.6992 117.211 20.6562C116.215 22.6016 114.797 24.0547 112.957 25.0156C111.117 25.9648 108.932 26.4395 106.4 26.4395ZM106.506 21.6934C108.615 21.6934 110.18 20.9375 111.199 19.4258C112.219 17.9141 112.729 15.9512 112.729 13.5371C112.729 10.7363 112.248 8.63281 111.287 7.22656C110.326 5.82031 108.779 5.11719 106.646 5.11719C102.439 5.11719 100.336 7.88867 100.336 13.4316C100.336 15.9043 100.84 17.9023 101.848 19.4258C102.867 20.9375 104.42 21.6934 106.506 21.6934ZM143.543 24.2773C143.262 24.4766 142.758 24.752 142.031 25.1035C141.316 25.4434 140.326 25.748 139.061 26.0176C137.795 26.2871 136.207 26.4219 134.297 26.4219C131.73 26.4219 129.516 26 127.652 25.1562C125.801 24.3008 124.377 22.9238 123.381 21.0254C122.385 19.1152 121.887 16.5898 121.887 13.4492C121.887 9.26562 122.959 6.04297 125.104 3.78125C127.248 1.50781 130.236 0.371094 134.068 0.371094C135.896 0.371094 137.355 0.546875 138.445 0.898438C139.535 1.25 140.361 1.66016 140.924 2.12891C141.486 2.59766 141.879 3.00781 142.102 3.35938C142.184 3.48828 142.242 3.60547 142.277 3.71094C142.312 3.80469 142.336 3.95703 142.348 4.16797C142.383 4.44922 142.389 4.85938 142.365 5.39844C142.354 5.9375 142.312 6.41211 142.242 6.82227C142.195 7.08008 142.119 7.25 142.014 7.33203C141.967 7.37891 141.885 7.41992 141.768 7.45508C141.65 7.49023 141.475 7.50781 141.24 7.50781C140.865 7.50781 140.426 7.49609 139.922 7.47266C139.43 7.4375 139.066 7.40234 138.832 7.36719C138.551 7.32031 138.346 7.25586 138.217 7.17383C138.1 7.08008 137.971 6.93945 137.83 6.75195C137.689 6.56445 137.496 6.34766 137.25 6.10156C137.004 5.84375 136.629 5.61523 136.125 5.41602C135.633 5.2168 134.947 5.11719 134.068 5.11719C132.135 5.11719 130.617 5.82031 129.516 7.22656C128.414 8.62109 127.863 10.6309 127.863 13.2559C127.863 16.0098 128.432 18.1016 129.568 19.5312C130.717 20.9609 132.363 21.6758 134.508 21.6758C135.586 21.6758 136.377 21.5996 136.881 21.4473C137.396 21.2832 137.725 21.1602 137.865 21.0781V15.6113C137.865 15.2715 137.924 15.0137 138.041 14.8379C138.568 14.0645 139.307 13.25 140.256 12.3945C140.432 12.2539 140.584 12.1836 140.713 12.1836C140.854 12.1836 141 12.2539 141.152 12.3945C141.668 12.8398 142.102 13.2676 142.453 13.6777C142.805 14.0762 143.109 14.4629 143.367 14.8379C143.484 15.0254 143.543 15.2832 143.543 15.6113V24.2773Z" fill="white"/>
</svg>
